<mxfile host="app.diagrams.net" modified="2024-03-06T04:18:23.510Z" agent="Mozilla/5.0 (Windows NT 10.0; Win64; x64) AppleWebKit/537.36 (KHTML, like Gecko) Chrome/122.0.0.0 Safari/537.36" etag="jWbY8JRKojq4JdgUreWo" version="24.0.2" type="github">
  <diagram name="페이지-1" id="zOj-QKhBbxH2-6uRJKiz">
    <mxGraphModel dx="1434" dy="780" grid="1" gridSize="10" guides="1" tooltips="1" connect="1" arrows="1" fold="1" page="1" pageScale="1" pageWidth="827" pageHeight="1169" math="0" shadow="0">
      <root>
        <mxCell id="0" />
        <mxCell id="1" parent="0" />
        <mxCell id="4H3R6wYcKFhwoXmUJrrw-2" value="" style="shape=actor;whiteSpace=wrap;html=1;" parent="1" vertex="1">
          <mxGeometry x="10" y="310" width="60" height="90" as="geometry" />
        </mxCell>
        <mxCell id="4H3R6wYcKFhwoXmUJrrw-3" value="로그아웃" style="ellipse;whiteSpace=wrap;html=1;" parent="1" vertex="1">
          <mxGeometry x="290" y="130" width="136" height="62.77" as="geometry" />
        </mxCell>
        <mxCell id="4H3R6wYcKFhwoXmUJrrw-4" value="회원정보 수정" style="ellipse;whiteSpace=wrap;html=1;" parent="1" vertex="1">
          <mxGeometry x="290" y="230" width="130" height="60" as="geometry" />
        </mxCell>
        <mxCell id="4H3R6wYcKFhwoXmUJrrw-7" value="메인페이지" style="ellipse;whiteSpace=wrap;html=1;" parent="1" vertex="1">
          <mxGeometry x="284" y="420" width="130" height="60" as="geometry" />
        </mxCell>
        <mxCell id="4H3R6wYcKFhwoXmUJrrw-8" value="로그인" style="ellipse;whiteSpace=wrap;html=1;" parent="1" vertex="1">
          <mxGeometry x="100" y="340" width="130" height="60" as="geometry" />
        </mxCell>
        <mxCell id="4H3R6wYcKFhwoXmUJrrw-12" value="To Do 리스트" style="ellipse;whiteSpace=wrap;html=1;" parent="1" vertex="1">
          <mxGeometry x="520" y="470" width="110" height="50" as="geometry" />
        </mxCell>
        <mxCell id="4H3R6wYcKFhwoXmUJrrw-15" value="" style="endArrow=none;html=1;rounded=0;exitX=1;exitY=0.5;exitDx=0;exitDy=0;entryX=0;entryY=0.5;entryDx=0;entryDy=0;" parent="1" source="4H3R6wYcKFhwoXmUJrrw-8" target="4H3R6wYcKFhwoXmUJrrw-4" edge="1">
          <mxGeometry relative="1" as="geometry">
            <mxPoint x="300" y="330" as="sourcePoint" />
            <mxPoint x="370" y="230" as="targetPoint" />
          </mxGeometry>
        </mxCell>
        <mxCell id="4H3R6wYcKFhwoXmUJrrw-16" value="" style="endArrow=none;html=1;rounded=0;exitX=1;exitY=0.5;exitDx=0;exitDy=0;entryX=0;entryY=0.5;entryDx=0;entryDy=0;" parent="1" source="4H3R6wYcKFhwoXmUJrrw-8" target="4H3R6wYcKFhwoXmUJrrw-3" edge="1">
          <mxGeometry relative="1" as="geometry">
            <mxPoint x="210" y="370" as="sourcePoint" />
            <mxPoint x="280" y="180" as="targetPoint" />
          </mxGeometry>
        </mxCell>
        <mxCell id="4H3R6wYcKFhwoXmUJrrw-19" value="" style="endArrow=none;html=1;rounded=0;entryX=0;entryY=0.5;entryDx=0;entryDy=0;exitX=1;exitY=0.5;exitDx=0;exitDy=0;" parent="1" source="4H3R6wYcKFhwoXmUJrrw-8" target="4H3R6wYcKFhwoXmUJrrw-7" edge="1">
          <mxGeometry relative="1" as="geometry">
            <mxPoint x="70" y="210" as="sourcePoint" />
            <mxPoint x="230" y="210" as="targetPoint" />
          </mxGeometry>
        </mxCell>
        <mxCell id="4H3R6wYcKFhwoXmUJrrw-21" value="캘린더" style="ellipse;whiteSpace=wrap;html=1;" parent="1" vertex="1">
          <mxGeometry x="520" y="380" width="110" height="50" as="geometry" />
        </mxCell>
        <mxCell id="4H3R6wYcKFhwoXmUJrrw-22" value="공모전" style="ellipse;whiteSpace=wrap;html=1;" parent="1" vertex="1">
          <mxGeometry x="520" y="290" width="110" height="50" as="geometry" />
        </mxCell>
        <mxCell id="4H3R6wYcKFhwoXmUJrrw-27" value="" style="endArrow=none;html=1;rounded=0;exitX=1;exitY=0.75;exitDx=0;exitDy=0;entryX=0;entryY=0.5;entryDx=0;entryDy=0;" parent="1" source="4H3R6wYcKFhwoXmUJrrw-2" target="4H3R6wYcKFhwoXmUJrrw-8" edge="1">
          <mxGeometry relative="1" as="geometry">
            <mxPoint x="330" y="310" as="sourcePoint" />
            <mxPoint x="490" y="310" as="targetPoint" />
          </mxGeometry>
        </mxCell>
        <mxCell id="4H3R6wYcKFhwoXmUJrrw-32" value="자료 정리" style="ellipse;whiteSpace=wrap;html=1;" parent="1" vertex="1">
          <mxGeometry x="520" y="559.5" width="110" height="50" as="geometry" />
        </mxCell>
        <mxCell id="4H3R6wYcKFhwoXmUJrrw-44" value="&amp;lt;&amp;lt;extend&amp;gt;&amp;gt;" style="endArrow=open;endSize=12;dashed=1;html=1;rounded=0;" parent="1" edge="1">
          <mxGeometry y="-10" width="160" relative="1" as="geometry">
            <mxPoint x="230" y="70" as="sourcePoint" />
            <mxPoint x="70" y="70" as="targetPoint" />
            <mxPoint as="offset" />
          </mxGeometry>
        </mxCell>
        <mxCell id="4H3R6wYcKFhwoXmUJrrw-45" value="&amp;lt;&amp;lt;include&amp;gt;&amp;gt;" style="endArrow=open;endSize=12;dashed=1;html=1;rounded=0;" parent="1" edge="1">
          <mxGeometry y="10" width="160" relative="1" as="geometry">
            <mxPoint x="70" y="120" as="sourcePoint" />
            <mxPoint x="230" y="120" as="targetPoint" />
            <mxPoint as="offset" />
          </mxGeometry>
        </mxCell>
        <mxCell id="4H3R6wYcKFhwoXmUJrrw-53" value="" style="endArrow=classic;html=1;rounded=0;" parent="1" edge="1">
          <mxGeometry width="50" height="50" relative="1" as="geometry">
            <mxPoint x="90" y="160.97" as="sourcePoint" />
            <mxPoint x="210" y="160.97" as="targetPoint" />
          </mxGeometry>
        </mxCell>
        <mxCell id="4H3R6wYcKFhwoXmUJrrw-54" value="" style="endArrow=classic;html=1;rounded=0;entryX=1;entryY=0.5;entryDx=0;entryDy=0;exitX=0;exitY=0.5;exitDx=0;exitDy=0;" parent="1" source="4H3R6wYcKFhwoXmUJrrw-32" target="4H3R6wYcKFhwoXmUJrrw-7" edge="1">
          <mxGeometry width="50" height="50" relative="1" as="geometry">
            <mxPoint x="110" y="210" as="sourcePoint" />
            <mxPoint x="230" y="210" as="targetPoint" />
          </mxGeometry>
        </mxCell>
        <mxCell id="4H3R6wYcKFhwoXmUJrrw-55" value="" style="endArrow=classic;html=1;rounded=0;entryX=1;entryY=0.5;entryDx=0;entryDy=0;exitX=0;exitY=0.5;exitDx=0;exitDy=0;" parent="1" source="4H3R6wYcKFhwoXmUJrrw-12" target="4H3R6wYcKFhwoXmUJrrw-7" edge="1">
          <mxGeometry width="50" height="50" relative="1" as="geometry">
            <mxPoint x="120" y="220" as="sourcePoint" />
            <mxPoint x="240" y="220" as="targetPoint" />
          </mxGeometry>
        </mxCell>
        <mxCell id="4H3R6wYcKFhwoXmUJrrw-56" value="" style="endArrow=classic;html=1;rounded=0;entryX=1;entryY=0.5;entryDx=0;entryDy=0;exitX=0;exitY=0.5;exitDx=0;exitDy=0;" parent="1" source="4H3R6wYcKFhwoXmUJrrw-21" target="4H3R6wYcKFhwoXmUJrrw-7" edge="1">
          <mxGeometry width="50" height="50" relative="1" as="geometry">
            <mxPoint x="130" y="230" as="sourcePoint" />
            <mxPoint x="250" y="230" as="targetPoint" />
          </mxGeometry>
        </mxCell>
        <mxCell id="4H3R6wYcKFhwoXmUJrrw-57" value="" style="endArrow=classic;html=1;rounded=0;entryX=1;entryY=0.5;entryDx=0;entryDy=0;exitX=0;exitY=0.5;exitDx=0;exitDy=0;" parent="1" source="4H3R6wYcKFhwoXmUJrrw-22" target="4H3R6wYcKFhwoXmUJrrw-7" edge="1">
          <mxGeometry width="50" height="50" relative="1" as="geometry">
            <mxPoint x="140" y="240" as="sourcePoint" />
            <mxPoint x="260" y="240" as="targetPoint" />
          </mxGeometry>
        </mxCell>
        <mxCell id="v2GlUU-VMNgjtfaKAvEX-1" value="Actor" style="shape=umlActor;verticalLabelPosition=bottom;verticalAlign=top;html=1;outlineConnect=0;" parent="1" vertex="1">
          <mxGeometry x="30" y="420" width="30" height="60" as="geometry" />
        </mxCell>
        <mxCell id="5TPSPf-iLLyqyNMScQFs-1" value="이름" style="ellipse;whiteSpace=wrap;html=1;align=center;" vertex="1" parent="1">
          <mxGeometry x="290" y="790" width="100" height="40" as="geometry" />
        </mxCell>
        <mxCell id="5TPSPf-iLLyqyNMScQFs-2" value="이메일" style="ellipse;whiteSpace=wrap;html=1;align=center;" vertex="1" parent="1">
          <mxGeometry x="72" y="780" width="100" height="40" as="geometry" />
        </mxCell>
        <mxCell id="5TPSPf-iLLyqyNMScQFs-4" value="ID" style="ellipse;whiteSpace=wrap;html=1;align=center;" vertex="1" parent="1">
          <mxGeometry x="326" y="860" width="100" height="40" as="geometry" />
        </mxCell>
        <mxCell id="5TPSPf-iLLyqyNMScQFs-5" value="나이" style="ellipse;whiteSpace=wrap;html=1;align=center;" vertex="1" parent="1">
          <mxGeometry x="290" y="940" width="100" height="40" as="geometry" />
        </mxCell>
        <mxCell id="5TPSPf-iLLyqyNMScQFs-6" value="성별" style="ellipse;whiteSpace=wrap;html=1;align=center;" vertex="1" parent="1">
          <mxGeometry x="70" y="930" width="100" height="40" as="geometry" />
        </mxCell>
        <mxCell id="5TPSPf-iLLyqyNMScQFs-7" value="회원" style="whiteSpace=wrap;html=1;align=center;" vertex="1" parent="1">
          <mxGeometry x="172" y="860" width="100" height="40" as="geometry" />
        </mxCell>
        <mxCell id="5TPSPf-iLLyqyNMScQFs-8" value="" style="endArrow=none;html=1;rounded=0;" edge="1" parent="1" source="5TPSPf-iLLyqyNMScQFs-7" target="5TPSPf-iLLyqyNMScQFs-6">
          <mxGeometry relative="1" as="geometry">
            <mxPoint x="292" y="900" as="sourcePoint" />
            <mxPoint x="452" y="900" as="targetPoint" />
          </mxGeometry>
        </mxCell>
        <mxCell id="5TPSPf-iLLyqyNMScQFs-11" value="" style="endArrow=none;html=1;rounded=0;" edge="1" parent="1" source="5TPSPf-iLLyqyNMScQFs-7" target="5TPSPf-iLLyqyNMScQFs-2">
          <mxGeometry relative="1" as="geometry">
            <mxPoint x="234" y="910" as="sourcePoint" />
            <mxPoint x="169" y="981" as="targetPoint" />
          </mxGeometry>
        </mxCell>
        <mxCell id="5TPSPf-iLLyqyNMScQFs-12" value="" style="endArrow=none;html=1;rounded=0;" edge="1" parent="1" source="5TPSPf-iLLyqyNMScQFs-7" target="5TPSPf-iLLyqyNMScQFs-1">
          <mxGeometry relative="1" as="geometry">
            <mxPoint x="244" y="920" as="sourcePoint" />
            <mxPoint x="179" y="991" as="targetPoint" />
          </mxGeometry>
        </mxCell>
        <mxCell id="5TPSPf-iLLyqyNMScQFs-13" value="" style="endArrow=none;html=1;rounded=0;" edge="1" parent="1" source="5TPSPf-iLLyqyNMScQFs-7" target="5TPSPf-iLLyqyNMScQFs-5">
          <mxGeometry relative="1" as="geometry">
            <mxPoint x="254" y="930" as="sourcePoint" />
            <mxPoint x="189" y="1001" as="targetPoint" />
          </mxGeometry>
        </mxCell>
        <mxCell id="5TPSPf-iLLyqyNMScQFs-14" value="장소" style="ellipse;whiteSpace=wrap;html=1;align=center;" vertex="1" parent="1">
          <mxGeometry x="720" y="790" width="100" height="40" as="geometry" />
        </mxCell>
        <mxCell id="5TPSPf-iLLyqyNMScQFs-15" value="날짜" style="ellipse;whiteSpace=wrap;html=1;align=center;" vertex="1" parent="1">
          <mxGeometry x="502" y="780" width="100" height="40" as="geometry" />
        </mxCell>
        <mxCell id="5TPSPf-iLLyqyNMScQFs-18" value="" style="ellipse;whiteSpace=wrap;html=1;align=center;" vertex="1" parent="1">
          <mxGeometry x="720" y="940" width="100" height="40" as="geometry" />
        </mxCell>
        <mxCell id="5TPSPf-iLLyqyNMScQFs-19" value="" style="ellipse;whiteSpace=wrap;html=1;align=center;" vertex="1" parent="1">
          <mxGeometry x="500" y="930" width="100" height="40" as="geometry" />
        </mxCell>
        <mxCell id="5TPSPf-iLLyqyNMScQFs-20" value="A공모전" style="whiteSpace=wrap;html=1;align=center;" vertex="1" parent="1">
          <mxGeometry x="602" y="860" width="100" height="40" as="geometry" />
        </mxCell>
        <mxCell id="5TPSPf-iLLyqyNMScQFs-21" value="" style="endArrow=none;html=1;rounded=0;" edge="1" parent="1" source="5TPSPf-iLLyqyNMScQFs-20" target="5TPSPf-iLLyqyNMScQFs-19">
          <mxGeometry relative="1" as="geometry">
            <mxPoint x="722" y="900" as="sourcePoint" />
            <mxPoint x="882" y="900" as="targetPoint" />
          </mxGeometry>
        </mxCell>
        <mxCell id="5TPSPf-iLLyqyNMScQFs-22" value="" style="endArrow=none;html=1;rounded=0;" edge="1" parent="1" source="5TPSPf-iLLyqyNMScQFs-20" target="5TPSPf-iLLyqyNMScQFs-15">
          <mxGeometry relative="1" as="geometry">
            <mxPoint x="664" y="910" as="sourcePoint" />
            <mxPoint x="599" y="981" as="targetPoint" />
          </mxGeometry>
        </mxCell>
        <mxCell id="5TPSPf-iLLyqyNMScQFs-23" value="" style="endArrow=none;html=1;rounded=0;" edge="1" parent="1" source="5TPSPf-iLLyqyNMScQFs-20" target="5TPSPf-iLLyqyNMScQFs-14">
          <mxGeometry relative="1" as="geometry">
            <mxPoint x="674" y="920" as="sourcePoint" />
            <mxPoint x="609" y="991" as="targetPoint" />
          </mxGeometry>
        </mxCell>
        <mxCell id="5TPSPf-iLLyqyNMScQFs-24" value="" style="endArrow=none;html=1;rounded=0;" edge="1" parent="1" source="5TPSPf-iLLyqyNMScQFs-20" target="5TPSPf-iLLyqyNMScQFs-18">
          <mxGeometry relative="1" as="geometry">
            <mxPoint x="684" y="930" as="sourcePoint" />
            <mxPoint x="619" y="1001" as="targetPoint" />
          </mxGeometry>
        </mxCell>
        <mxCell id="5TPSPf-iLLyqyNMScQFs-25" value="PW" style="ellipse;whiteSpace=wrap;html=1;align=center;" vertex="1" parent="1">
          <mxGeometry x="172" y="980" width="100" height="40" as="geometry" />
        </mxCell>
      </root>
    </mxGraphModel>
  </diagram>
</mxfile>
